# File created by Blade
# Date/Time:  Thu Sep 25 19:36:54 2014
# Frame Rate: 120.000 fps
#------------------------------------------------------
:FULLY-SPECIFIED
:DEGREES
380
root 0.594530 33.879827 1.294284 56.217080 -8.675925 -21.534332
Spine -26.256718 -0.230364 16.590190
Head -22.811204 20.411898 10.756620
LeftShoulder -3.821519 12.797484 21.970273
LeftArm 39.045947 -11.180792 -34.033525
LeftForeArm 7.098497 0.000000 19.514405
LeftHand -22.481208 0.000000 -3.032206
LeftHandThumb1 -26.253704 0.000000 33.147579
RightShoulder -20.908989 -1.466606 -25.918654
RightArm -34.658784 -24.073048 70.781941
RightForeArm -23.555290 0.000000 11.439248
RightHand -4.741267 -0.000000 25.955215
RightHandThumb1 -24.326973 -0.000000 -32.862282
LeftUpLeg -50.545732 15.750455 4.603183
LeftLeg 1.337560 -0.000000 -0.000000
LeftFoot -10.467092 10.903437 -11.052389
LeftToeBase 8.033161 -0.000000 -0.000000
RightUpLeg 8.784633 20.249198 -24.418684
RightLeg 119.190366 -0.000000 -0.000000
RightFoot 31.560510 -8.837331 14.133244
RightToeBase 2.391420 -0.000000 -0.000000
381
root 0.600046 33.891628 1.272456 56.548601 -8.748766 -21.631902
Spine -26.308360 -0.214918 16.522768
Head -22.935771 20.617159 10.807981
LeftShoulder -3.861268 12.879312 22.162244
LeftArm 39.546962 -11.617800 -33.663081
LeftForeArm 6.974830 -0.000000 19.391289
LeftHand -22.379409 -0.000000 -2.820711
LeftHandThumb1 -26.253704 0.000000 33.147579
RightShoulder -20.977203 -1.378173 -25.947622
RightArm -34.721127 -24.055498 70.636659
RightForeArm -23.795772 -0.000000 11.452827
RightHand -4.691601 -0.000000 25.946980
RightHandThumb1 -24.326973 -0.000000 -32.862282
LeftUpLeg -50.936189 16.050180 4.365121
LeftLeg 1.340729 -0.000000 -0.000000
LeftFoot -10.352288 10.606261 -11.157005
LeftToeBase 8.113569 -0.000000 -0.000000
RightUpLeg 8.865265 20.295222 -24.472572
RightLeg 119.063771 -0.000000 -0.000000
RightFoot 31.586756 -8.884822 14.180953
RightToeBase 2.544546 -0.000000 -0.000000
382
root 0.602565 33.901097 1.254240 56.865208 -8.811901 -21.726332
Spine -26.361902 -0.271061 16.472733
Head -23.051782 20.851044 10.921025
LeftShoulder -3.832797 12.791565 22.434632
LeftArm 39.713175 -11.892884 -33.266494
LeftForeArm 6.819564 -0.000000 19.494131
LeftHand -22.574689 -0.000000 -2.714136
LeftHandThumb1 -26.253704 0.000000 33.147579
RightShoulder -20.928375 -1.419406 -25.908026
RightArm -34.708224 -23.973801 70.477237
RightForeArm -23.961760 -0.000000 11.508190
RightHand -4.682401 -0.000000 25.923447
RightHandThumb1 -24.326973 -0.000000 -32.862282
LeftUpLeg -51.267054 16.290255 4.186555
LeftLeg 1.283444 -0.000000 -0.000000
LeftFoot -10.246251 10.382374 -11.382698
LeftToeBase 8.005179 -0.000000 -0.000000
RightUpLeg 8.980430 20.335134 -24.503240
RightLeg 118.911329 -0.000000 -0.000000
RightFoot 31.624639 -8.924577 14.146693
RightToeBase 2.402153 -0.000000 -0.000000
383
root 0.603223 33.908704 1.236621 57.194450 -8.861454 -21.791085
Spine -26.457994 -0.258038 16.395436
Head -23.184149 20.976387 10.930637
LeftShoulder -3.773130 12.689689 22.691266
LeftArm 40.021855 -12.339623 -33.073625
LeftForeArm 6.929147 -0.000000 19.405800
LeftHand -22.461350 -0.000000 -2.642469
LeftHandThumb1 -26.253704 0.000000 33.147579
RightShoulder -20.963644 -1.476199 -25.912404
RightArm -34.763829 -23.975242 70.382793
RightForeArm -24.077062 -0.000000 11.564375
RightHand -4.661906 -0.000000 25.910494
RightHandThumb1 -24.326973 -0.000000 -32.862282
LeftUpLeg -51.600651 16.466906 4.029736
LeftLeg 1.209011 -0.000000 -0.000000
LeftFoot -10.163054 10.277904 -11.476510
LeftToeBase 8.029988 -0.000000 -0.000000
RightUpLeg 9.112317 20.341221 -24.527290
RightLeg 118.747468 -0.000000 -0.000000
RightFoot 31.623400 -9.074149 14.226100
RightToeBase 2.342611 -0.000000 -0.000000
384
root 0.606768 33.916129 1.215187 57.482076 -8.846068 -21.859495
Spine -26.491081 -0.355850 16.417081
Head -23.295678 21.174591 11.006267
LeftShoulder -3.782524 12.560446 22.978357
LeftArm 40.306784 -12.717100 -32.926686
LeftForeArm 6.905854 -0.000000 19.347764
LeftHand -22.673273 -0.000000 -2.389973
LeftHandThumb1 -26.253704 0.000000 33.147579
RightShoulder -20.960240 -1.512726 -25.942899
RightArm -34.695511 -24.028217 70.294245
RightForeArm -24.115879 -0.000000 11.520759
RightHand -4.600724 -0.000000 25.799760
RightHandThumb1 -24.326973 -0.000000 -32.862282
LeftUpLeg -51.889588 16.529784 4.020173
LeftLeg 1.150202 -0.000000 -0.000000
LeftFoot -10.111568 10.279097 -11.601970
LeftToeBase 8.184903 -0.000000 -0.000000
RightUpLeg 9.295568 20.325812 -24.492878
RightLeg 118.589758 -0.000000 -0.000000
RightFoot 31.677258 -9.061033 13.994890
RightToeBase 2.200177 -0.000000 -0.000000
385
root 0.607319 33.922528 1.194115 57.778386 -8.888754 -21.956498
Spine -26.526932 -0.422561 16.374756
Head -23.419106 21.415341 11.111325
LeftShoulder -3.745454 12.522044 23.280751
LeftArm 40.534374 -13.211690 -32.770301
LeftForeArm 6.814237 -0.000000 19.381445
LeftHand -22.651378 -0.000000 -2.299765
LeftHandThumb1 -26.253704 0.000000 33.147579
RightShoulder -21.008599 -1.508129 -25.990947
RightArm -34.647966 -24.296041 70.328514
RightForeArm -24.061550 -0.000000 11.435298
RightHand -4.632076 -0.000000 25.944049
RightHandThumb1 -24.326973 -0.000000 -32.862282
LeftUpLeg -52.159100 16.634683 3.994705
LeftLeg 1.073412 -0.000000 -0.000000
LeftFoot -10.085532 10.331373 -11.735207
LeftToeBase 8.236986 -0.000000 -0.000000
RightUpLeg 9.453011 20.368992 -24.506369
RightLeg 118.430819 -0.000000 -0.000000
RightFoot 31.670124 -9.084509 13.825887
RightToeBase 2.249604 -0.000000 -0.000000
386
root 0.604804 33.928252 1.177079 58.098885 -8.973968 -22.088704
Spine -26.582843 -0.422416 16.300487
Head -23.534907 21.615273 11.241431
LeftShoulder -3.631812 12.144525 23.690764
LeftArm 40.500077 -13.582500 -32.844366
LeftForeArm 6.998487 0.000000 19.465047
LeftHand -22.750377 0.000000 -2.196095
LeftHandThumb1 -26.253704 0.000000 33.147579
RightShoulder -21.008443 -1.469537 -25.990448
RightArm -34.741116 -24.366162 70.259687
RightForeArm -24.202412 -0.000000 11.472435
RightHand -4.571380 -0.000000 25.761010
RightHandThumb1 -24.326973 -0.000000 -32.862282
LeftUpLeg -52.432565 16.807143 3.933639
LeftLeg 0.990230 -0.000000 -0.000000
LeftFoot -10.084823 10.376123 -11.881859
LeftToeBase 8.266616 -0.000000 -0.000000
RightUpLeg 9.566854 20.465141 -24.543250
RightLeg 118.264732 -0.000000 -0.000000
RightFoot 31.682828 -9.178732 13.968145
RightToeBase 2.351387 -0.000000 -0.000000
387
root 0.600134 33.936230 1.155418 58.430418 -9.006500 -22.248968
Spine -26.637459 -0.432552 16.287443
Head -23.664405 21.847615 11.355904
LeftShoulder -3.623398 12.129440 23.969107
LeftArm 40.769638 -14.082190 -32.661999
LeftForeArm 6.898671 0.000000 19.412359
LeftHand -22.670410 -0.000000 -2.125611
LeftHandThumb1 -26.253704 0.000000 33.147579
RightShoulder -21.042651 -1.521610 -25.971232
RightArm -34.666196 -24.465274 70.144520
RightForeArm -24.314317 -0.000000 11.476792
RightHand -4.522681 -0.000000 25.700732
RightHandThumb1 -24.326973 -0.000000 -32.862282
LeftUpLeg -52.748393 16.985046 3.914028
LeftLeg 0.943028 -0.000000 -0.000000
LeftFoot -10.084308 10.424469 -11.975442
LeftToeBase 8.348123 -0.000000 -0.000000
RightUpLeg 9.669363 20.540711 -24.523596
RightLeg 118.113538 -0.000000 -0.000000
RightFoot 31.637377 -9.283817 14.069158
RightToeBase 2.472144 -0.000000 -0.000000
388
root 0.599773 33.943552 1.131173 58.747438 -8.993827 -22.374414
Spine -26.671902 -0.509090 16.338769
Head -23.835960 22.141958 11.402560
LeftShoulder -3.680908 12.160830 24.150505
LeftArm 41.097504 -14.628557 -32.397985
LeftForeArm 6.751598 -0.000000 19.324339
LeftHand -22.499981 -0.000000 -2.146294
LeftHandThumb1 -26.253704 0.000000 33.147579
RightShoulder -21.036478 -1.497313 -26.024774
RightArm -34.621435 -24.504798 70.029159
RightForeArm -24.327619 -0.000000 11.454459
RightHand -4.504920 -0.000000 25.797394
RightHandThumb1 -24.326973 -0.000000 -32.862282
LeftUpLeg -53.103239 17.086057 3.921232
LeftLeg 0.975066 -0.000000 -0.000000
LeftFoot -10.083033 10.530974 -11.980627
LeftToeBase 8.352549 -0.000000 -0.000000
RightUpLeg 9.796874 20.579801 -24.490370
RightLeg 117.952582 -0.000000 -0.000000
RightFoot 31.652469 -9.386827 14.147920
RightToeBase 2.471131 -0.000000 -0.000000
389
root 0.596588 33.950411 1.108817 59.099001 -9.026006 -22.538093
Spine -26.737026 -0.542403 16.356432
Head -24.025719 22.415861 11.491898
LeftShoulder -3.666523 12.037287 24.410166
LeftArm 41.223323 -15.169023 -32.257147
LeftForeArm 6.671050 -0.000000 19.343632
LeftHand -22.544793 -0.000000 -2.471378
LeftHandThumb1 -26.253704 0.000000 33.147579
RightShoulder -21.047046 -1.453694 -26.043646
RightArm -34.592905 -24.433122 69.806875
RightForeArm -24.677501 -0.000000 11.514805
RightHand -4.494398 -0.000000 25.720040
RightHandThumb1 -24.326973 -0.000000 -32.862282
LeftUpLeg -53.507965 17.302677 3.827053
LeftLeg 1.019204 -0.000000 -0.000000
LeftFoot -10.089641 10.560142 -11.951845
LeftToeBase 8.409197 -0.000000 -0.000000
RightUpLeg 9.867778 20.624601 -24.491004
RightLeg 117.789979 -0.000000 -0.000000
RightFoot 31.619537 -9.469859 14.029984
RightToeBase 2.745277 -0.000000 -0.000000
390
root 0.594683 33.957911 1.083943 59.471305 -9.063036 -22.709594
Spine -26.811704 -0.546628 16.349076
Head -24.212128 22.754286 11.594914
LeftShoulder -3.612708 11.845021 24.711097
LeftArm 41.265066 -15.615457 -32.072419
LeftForeArm 6.680568 0.000000 19.389050
LeftHand -22.649881 -0.000000 -2.670610
LeftHandThumb1 -26.253704 0.000000 33.147579
RightShoulder -21.099712 -1.430466 -26.035448
RightArm -34.536250 -24.465727 69.593118
RightForeArm -24.774658 -0.000000 11.548031
RightHand -4.407353 -0.000000 25.732209
RightHandThumb1 -24.326973 -0.000000 -32.862282
LeftUpLeg -53.972479 17.550995 3.682523
LeftLeg 1.112933 -0.000000 -0.000000
LeftFoot -9.988194 10.545334 -11.660952
LeftToeBase 8.019175 -0.000000 -0.000000
RightUpLeg 9.903348 20.706332 -24.514030
RightLeg 117.636857 -0.000000 -0.000000
RightFoot 31.630979 -9.525437 14.155131
RightToeBase 2.620799 -0.000000 -0.000000
391
root 0.599414 33.961719 1.057633 59.826562 -9.038058 -22.790255
Spine -26.893868 -0.663231 16.412331
Head -24.478348 23.063745 11.562827
LeftShoulder -3.649398 11.769235 24.908113
LeftArm 41.450997 -16.072637 -31.811737
LeftForeArm 6.858648 -0.000000 19.272076
LeftHand -22.492924 -0.000000 -2.544837
LeftHandThumb1 -26.253704 0.000000 33.147579
RightShoulder -21.125476 -1.373509 -26.115290
RightArm -34.473960 -24.359770 69.346471
RightForeArm -25.098212 -0.000000 11.617874
RightHand -4.426262 -0.000000 25.761598
RightHandThumb1 -24.326973 -0.000000 -32.862282
LeftUpLeg -54.471617 17.657488 3.552298
LeftLeg 1.241081 -0.000000 -0.000000
LeftFoot -10.081560 10.608229 -11.698010
LeftToeBase 8.251668 -0.000000 -0.000000
RightUpLeg 10.005731 20.728079 -24.521510
RightLeg 117.463072 -0.000000 -0.000000
RightFoot 31.687859 -9.443770 14.187764
RightToeBase 2.487309 -0.000000 -0.000000
